<svg height="3134" width="720" xmlns="http://www.w3.org/2000/svg">
<rect height="3134" fill="#555" width="720"></rect>
<text fill="#7f7" font-family="Courier New" font-size="12" xml:space="preserve">
<tspan x="10" y="26">├── UNMET PEER DEPENDENCY grunt@&gt;=0.4.0</tspan>
<tspan x="10" y="42">└─┬ grunt-phantomas@0.14.0 </tspan>
<tspan x="10" y="58">  ├── bluebird@3.4.7 </tspan>
<tspan x="10" y="74">  ├─┬ html-minifier@3.2.3 </tspan>
<tspan x="10" y="90">  │ ├─┬ camel-case@3.0.0 </tspan>
<tspan x="10" y="106">  │ │ ├─┬ no-case@2.3.1 </tspan>
<tspan x="10" y="122">  │ │ │ └── lower-case@1.1.4 </tspan>
<tspan x="10" y="138">  │ │ └── upper-case@1.1.3 </tspan>
<tspan x="10" y="154">  │ ├─┬ clean-css@3.4.25 </tspan>
<tspan x="10" y="170">  │ │ ├── commander@2.8.1 </tspan>
<tspan x="10" y="186">  │ │ └─┬ source-map@0.4.4 </tspan>
<tspan x="10" y="202">  │ │   └── amdefine@1.0.1 </tspan>
<tspan x="10" y="218">  │ ├─┬ commander@2.9.0 </tspan>
<tspan x="10" y="234">  │ │ └── graceful-readlink@1.0.1 </tspan>
<tspan x="10" y="250">  │ ├── he@1.1.1 </tspan>
<tspan x="10" y="266">  │ ├─┬ ncname@1.0.0 </tspan>
<tspan x="10" y="282">  │ │ └── xml-char-classes@1.0.0 </tspan>
<tspan x="10" y="298">  │ ├── param-case@2.1.1 </tspan>
<tspan x="10" y="314">  │ ├── relateurl@0.2.7 </tspan>
<tspan x="10" y="330">  │ └─┬ uglify-js@2.7.5 </tspan>
<tspan x="10" y="346">  │   ├── async@0.2.10 </tspan>
<tspan x="10" y="362">  │   ├── source-map@0.5.6 </tspan>
<tspan x="10" y="378">  │   ├── uglify-to-browserify@1.0.2 </tspan>
<tspan x="10" y="394">  │   └─┬ yargs@3.10.0 </tspan>
<tspan x="10" y="410">  │     ├── camelcase@1.2.1 </tspan>
<tspan x="10" y="426">  │     ├─┬ cliui@2.1.0 </tspan>
<tspan x="10" y="442">  │     │ ├─┬ center-align@0.1.3 </tspan>
<tspan x="10" y="458">  │     │ │ ├─┬ align-text@0.1.4 </tspan>
<tspan x="10" y="474">  │     │ │ │ ├── kind-of@3.1.0 </tspan>
<tspan x="10" y="490">  │     │ │ │ ├── longest@1.0.1 </tspan>
<tspan x="10" y="506">  │     │ │ │ └── repeat-string@1.6.1 </tspan>
<tspan x="10" y="522">  │     │ │ └── lazy-cache@1.0.4 </tspan>
<tspan x="10" y="538">  │     │ └── right-align@0.1.3 </tspan>
<tspan x="10" y="554">  │     ├── decamelize@1.2.0 </tspan>
<tspan x="10" y="570">  │     └── window-size@0.1.0 </tspan>
<tspan x="10" y="586">  ├─┬ json2csv@3.7.3 </tspan>
<tspan x="10" y="602">  │ ├─┬ cli-table@0.3.1 </tspan>
<tspan x="10" y="618">  │ │ └── colors@1.0.3 </tspan>
<tspan x="10" y="634">  │ ├─┬ debug@2.6.3 </tspan>
<tspan x="10" y="650">  │ │ └── ms@0.7.2 </tspan>
<tspan x="10" y="666">  │ ├─┬ flat@2.0.1 </tspan>
<tspan x="10" y="682">  │ │ └── is-buffer@1.1.5 </tspan>
<tspan x="10" y="698">  │ ├── lodash.clonedeep@4.5.0 </tspan>
<tspan x="10" y="714">  │ ├── lodash.flatten@4.4.0 </tspan>
<tspan x="10" y="730">  │ ├── lodash.get@4.4.2 </tspan>
<tspan x="10" y="746">  │ ├── lodash.set@4.3.2 </tspan>
<tspan x="10" y="762">  │ ├── lodash.uniq@4.5.0 </tspan>
<tspan x="10" y="778">  │ └── path-is-absolute@1.0.1 </tspan>
<tspan x="10" y="794">  ├── lodash@4.17.4 </tspan>
<tspan x="10" y="810">  ├── node-fs@0.1.7 </tspan>
<tspan x="10" y="826">  └─┬ phantomas@1.18.0 </tspan>
<tspan x="10" y="842">    ├─┬ analyze-css@0.12.4 </tspan>
<tspan x="10" y="858">    │ ├─┬ cli@1.0.1 </tspan>
<tspan x="10" y="874">    │ │ └── exit@0.1.2 </tspan>
<tspan x="10" y="890">    │ ├─┬ css@2.2.1 </tspan>
<tspan x="10" y="906">    │ │ ├── source-map@0.1.43 </tspan>
<tspan x="10" y="922">    │ │ ├─┬ source-map-resolve@0.3.1 </tspan>
<tspan x="10" y="938">    │ │ │ ├── atob@1.1.3 </tspan>
<tspan x="10" y="954">    │ │ │ ├── resolve-url@0.2.1 </tspan>
<tspan x="10" y="970">    │ │ │ └── source-map-url@0.3.0 </tspan>
<tspan x="10" y="986">    │ │ └── urix@0.1.0 </tspan>
<tspan x="10" y="1002">    │ ├── css-shorthand-properties@1.0.0 </tspan>
<tspan x="10" y="1018">    │ ├─┬ debug@2.2.0 </tspan>
<tspan x="10" y="1034">    │ │ └── ms@0.7.1 </tspan>
<tspan x="10" y="1050">    │ ├── fast-stats@0.0.3 </tspan>
<tspan x="10" y="1066">    │ ├─┬ glob@7.1.1 </tspan>
<tspan x="10" y="1082">    │ │ ├── fs.realpath@1.0.0 </tspan>
<tspan x="10" y="1098">    │ │ ├─┬ inflight@1.0.6 </tspan>
<tspan x="10" y="1114">    │ │ │ └── wrappy@1.0.2 </tspan>
<tspan x="10" y="1130">    │ │ ├─┬ minimatch@3.0.3 </tspan>
<tspan x="10" y="1146">    │ │ │ └─┬ brace-expansion@1.1.6 </tspan>
<tspan x="10" y="1162">    │ │ │   ├── balanced-match@0.4.2 </tspan>
<tspan x="10" y="1178">    │ │ │   └── concat-map@0.0.1 </tspan>
<tspan x="10" y="1194">    │ │ └── once@1.4.0 </tspan>
<tspan x="10" y="1210">    │ ├─┬ http-proxy-agent@1.0.0 </tspan>
<tspan x="10" y="1226">    │ │ ├─┬ agent-base@2.0.1 </tspan>
<tspan x="10" y="1242">    │ │ │ └── semver@5.0.3 </tspan>
<tspan x="10" y="1258">    │ │ └── extend@3.0.0 </tspan>
<tspan x="10" y="1274">    │ ├─┬ node-fetch@1.6.3 </tspan>
<tspan x="10" y="1290">    │ │ ├─┬ encoding@0.1.12 </tspan>
<tspan x="10" y="1306">    │ │ │ └── iconv-lite@0.4.15 </tspan>
<tspan x="10" y="1322">    │ │ └── is-stream@1.1.0 </tspan>
<tspan x="10" y="1338">    │ ├── onecolor@3.0.4 </tspan>
<tspan x="10" y="1354">    │ ├── slick@1.12.2 </tspan>
<tspan x="10" y="1370">    │ └── specificity@0.2.1 </tspan>
<tspan x="10" y="1386">    ├── ansicolors@0.3.2 </tspan>
<tspan x="10" y="1402">    ├── ansistyles@0.1.3 </tspan>
<tspan x="10" y="1418">    ├── ascii-table@0.0.9 </tspan>
<tspan x="10" y="1434">    ├── async@2.3.0 </tspan>
<tspan x="10" y="1450">    ├── csv-string@2.3.2 </tspan>
<tspan x="10" y="1466">    ├─┬ js-yaml@3.8.3 </tspan>
<tspan x="10" y="1482">    │ ├─┬ argparse@1.0.9 </tspan>
<tspan x="10" y="1498">    │ │ └── sprintf-js@1.0.3 </tspan>
<tspan x="10" y="1514">    │ └── esprima@3.1.3 </tspan>
<tspan x="10" y="1530">    ├── node-statsd@0.1.1 </tspan>
<tspan x="10" y="1546">    ├── node-uuid@1.4.8 </tspan>
<tspan x="10" y="1562">    ├─┬ optimist@0.6.1 </tspan>
<tspan x="10" y="1578">    │ ├── minimist@0.0.10 </tspan>
<tspan x="10" y="1594">    │ └── wordwrap@0.0.2 </tspan>
<tspan x="10" y="1610">    ├─┬ phantomjs-prebuilt@2.1.14 </tspan>
<tspan x="10" y="1626">    │ ├── es6-promise@4.0.5 </tspan>
<tspan x="10" y="1642">    │ ├─┬ extract-zip@1.5.0 </tspan>
<tspan x="10" y="1658">    │ │ ├─┬ concat-stream@1.5.0 </tspan>
<tspan x="10" y="1674">    │ │ │ ├─┬ readable-stream@2.0.6 </tspan>
<tspan x="10" y="1690">    │ │ │ │ ├── core-util-is@1.0.2 </tspan>
<tspan x="10" y="1706">    │ │ │ │ ├── isarray@1.0.0 </tspan>
<tspan x="10" y="1722">    │ │ │ │ ├── process-nextick-args@1.0.7 </tspan>
<tspan x="10" y="1738">    │ │ │ │ ├── string_decoder@0.10.31 </tspan>
<tspan x="10" y="1754">    │ │ │ │ └── util-deprecate@1.0.2 </tspan>
<tspan x="10" y="1770">    │ │ │ └── typedarray@0.0.6 </tspan>
<tspan x="10" y="1786">    │ │ ├── debug@0.7.4 </tspan>
<tspan x="10" y="1802">    │ │ ├─┬ mkdirp@0.5.0 </tspan>
<tspan x="10" y="1818">    │ │ │ └── minimist@0.0.8 </tspan>
<tspan x="10" y="1834">    │ │ └─┬ yauzl@2.4.1 </tspan>
<tspan x="10" y="1850">    │ │   └─┬ fd-slicer@1.0.1 </tspan>
<tspan x="10" y="1866">    │ │     └── pend@1.2.0 </tspan>
<tspan x="10" y="1882">    │ ├─┬ fs-extra@1.0.0 </tspan>
<tspan x="10" y="1898">    │ │ ├── graceful-fs@4.1.11 </tspan>
<tspan x="10" y="1914">    │ │ ├── jsonfile@2.4.0 </tspan>
<tspan x="10" y="1930">    │ │ └── klaw@1.3.1 </tspan>
<tspan x="10" y="1946">    │ ├─┬ hasha@2.2.0 </tspan>
<tspan x="10" y="1962">    │ │ └─┬ pinkie-promise@2.0.1 </tspan>
<tspan x="10" y="1978">    │ │   └── pinkie@2.0.4 </tspan>
<tspan x="10" y="1994">    │ ├── kew@0.7.0 </tspan>
<tspan x="10" y="2010">    │ ├─┬ request@2.79.0 </tspan>
<tspan x="10" y="2026">    │ │ ├── aws-sign2@0.6.0 </tspan>
<tspan x="10" y="2042">    │ │ ├── aws4@1.6.0 </tspan>
<tspan x="10" y="2058">    │ │ ├── caseless@0.11.0 </tspan>
<tspan x="10" y="2074">    │ │ ├─┬ combined-stream@1.0.5 </tspan>
<tspan x="10" y="2090">    │ │ │ └── delayed-stream@1.0.0 </tspan>
<tspan x="10" y="2106">    │ │ ├── forever-agent@0.6.1 </tspan>
<tspan x="10" y="2122">    │ │ ├─┬ form-data@2.1.2 </tspan>
<tspan x="10" y="2138">    │ │ │ └── asynckit@0.4.0 </tspan>
<tspan x="10" y="2154">    │ │ ├─┬ har-validator@2.0.6 </tspan>
<tspan x="10" y="2170">    │ │ │ ├─┬ chalk@1.1.3 </tspan>
<tspan x="10" y="2186">    │ │ │ │ ├── ansi-styles@2.2.1 </tspan>
<tspan x="10" y="2202">    │ │ │ │ ├── escape-string-regexp@1.0.5 </tspan>
<tspan x="10" y="2218">    │ │ │ │ ├─┬ has-ansi@2.0.0 </tspan>
<tspan x="10" y="2234">    │ │ │ │ │ └── ansi-regex@2.1.1 </tspan>
<tspan x="10" y="2250">    │ │ │ │ ├── strip-ansi@3.0.1 </tspan>
<tspan x="10" y="2266">    │ │ │ │ └── supports-color@2.0.0 </tspan>
<tspan x="10" y="2282">    │ │ │ └─┬ is-my-json-valid@2.16.0 </tspan>
<tspan x="10" y="2298">    │ │ │   ├── generate-function@2.0.0 </tspan>
<tspan x="10" y="2314">    │ │ │   ├─┬ generate-object-property@1.2.0 </tspan>
<tspan x="10" y="2330">    │ │ │   │ └── is-property@1.0.2 </tspan>
<tspan x="10" y="2346">    │ │ │   ├── jsonpointer@4.0.1 </tspan>
<tspan x="10" y="2362">    │ │ │   └── xtend@4.0.1 </tspan>
<tspan x="10" y="2378">    │ │ ├─┬ hawk@3.1.3 </tspan>
<tspan x="10" y="2394">    │ │ │ ├── boom@2.10.1 </tspan>
<tspan x="10" y="2410">    │ │ │ ├── cryptiles@2.0.5 </tspan>
<tspan x="10" y="2426">    │ │ │ ├── hoek@2.16.3 </tspan>
<tspan x="10" y="2442">    │ │ │ └── sntp@1.0.9 </tspan>
<tspan x="10" y="2458">    │ │ ├─┬ http-signature@1.1.1 </tspan>
<tspan x="10" y="2474">    │ │ │ ├── assert-plus@0.2.0 </tspan>
<tspan x="10" y="2490">    │ │ │ ├─┬ jsprim@1.4.0 </tspan>
<tspan x="10" y="2506">    │ │ │ │ ├── assert-plus@1.0.0 </tspan>
<tspan x="10" y="2522">    │ │ │ │ ├── extsprintf@1.0.2 </tspan>
<tspan x="10" y="2538">    │ │ │ │ ├── json-schema@0.2.3 </tspan>
<tspan x="10" y="2554">    │ │ │ │ └── verror@1.3.6 </tspan>
<tspan x="10" y="2570">    │ │ │ └─┬ sshpk@1.11.0 </tspan>
<tspan x="10" y="2586">    │ │ │   ├── asn1@0.2.3 </tspan>
<tspan x="10" y="2602">    │ │ │   ├── assert-plus@1.0.0 </tspan>
<tspan x="10" y="2618">    │ │ │   ├── bcrypt-pbkdf@1.0.1 </tspan>
<tspan x="10" y="2634">    │ │ │   ├─┬ dashdash@1.14.1 </tspan>
<tspan x="10" y="2650">    │ │ │   │ └── assert-plus@1.0.0 </tspan>
<tspan x="10" y="2666">    │ │ │   ├── ecc-jsbn@0.1.1 </tspan>
<tspan x="10" y="2682">    │ │ │   ├─┬ getpass@0.1.6 </tspan>
<tspan x="10" y="2698">    │ │ │   │ └── assert-plus@1.0.0 </tspan>
<tspan x="10" y="2714">    │ │ │   ├── jodid25519@1.0.2 </tspan>
<tspan x="10" y="2730">    │ │ │   ├── jsbn@0.1.1 </tspan>
<tspan x="10" y="2746">    │ │ │   └── tweetnacl@0.14.5 </tspan>
<tspan x="10" y="2762">    │ │ ├── is-typedarray@1.0.0 </tspan>
<tspan x="10" y="2778">    │ │ ├── isstream@0.1.2 </tspan>
<tspan x="10" y="2794">    │ │ ├── json-stringify-safe@5.0.1 </tspan>
<tspan x="10" y="2810">    │ │ ├─┬ mime-types@2.1.15 </tspan>
<tspan x="10" y="2826">    │ │ │ └── mime-db@1.27.0 </tspan>
<tspan x="10" y="2842">    │ │ ├── oauth-sign@0.8.2 </tspan>
<tspan x="10" y="2858">    │ │ ├── qs@6.3.2 </tspan>
<tspan x="10" y="2874">    │ │ ├── stringstream@0.0.5 </tspan>
<tspan x="10" y="2890">    │ │ ├─┬ tough-cookie@2.3.2 </tspan>
<tspan x="10" y="2906">    │ │ │ └── punycode@1.4.1 </tspan>
<tspan x="10" y="2922">    │ │ ├── tunnel-agent@0.4.3 </tspan>
<tspan x="10" y="2938">    │ │ └── uuid@3.0.1 </tspan>
<tspan x="10" y="2954">    │ ├─┬ request-progress@2.0.1 </tspan>
<tspan x="10" y="2970">    │ │ └── throttleit@1.0.0 </tspan>
<tspan x="10" y="2986">    │ └─┬ which@1.2.14 </tspan>
<tspan x="10" y="3002">    │   └── isexe@2.0.0 </tspan>
<tspan x="10" y="3018">    ├── progress@1.1.8 </tspan>
<tspan x="10" y="3034">    ├── q@1.5.0 </tspan>
<tspan x="10" y="3050">    ├── slimerjs@0.10.3 </tspan>
<tspan x="10" y="3066">    ├─┬ tap-producer-macbre@0.0.3 </tspan>
<tspan x="10" y="3082">    │ ├── inherits@2.0.3 </tspan>
<tspan x="10" y="3098">    │ └── yamlish@0.0.7 </tspan>
<tspan x="10" y="3114">    └── travis-fold@0.1.2</tspan>
</text>
</svg>
